{
  "accessors": [
    {
      "bufferView": 2,
      "componentType": 5126,
      "count": 2378,
      "max": [
        252.4505157470703,
        132.53868103027344,
        29.151939392089844
      ],
      "min": [
        -245.68179321289063,
        -228.92959594726563,
        -543.5733642578125
      ],
      "type": "VEC3"
    },
    {
      "bufferView": 2,
      "byteOffset": 28536,
      "componentType": 5126,
      "count": 2378,
      "max": [
        1.0,
        1.0,
        1.0
      ],
      "min": [
        -1.0,
        -1.0,
        -1.0
      ],
      "type": "VEC3"
    },
    {
      "bufferView": 1,
      "componentType": 5126,
      "count": 2378,
      "max": [
        0.9661901593208313,
        0.9702807664871216
      ],
      "min": [
        0.0,
        0.0
      ],
      "type": "VEC2"
    },
    {
      "bufferView": 0,
      "componentType": 5125,
      "count": 5877,
      "type": "SCALAR"
    },
    {
      "bufferView": 2,
      "byteOffset": 57072,
      "componentType": 5126,
      "count": 8,
      "max": [
        63.20233154296875,
        49.72507858276367,
        24.73833465576172
      ],
      "min": [
        -44.79766082763672,
        -35.274932861328125,
        20.7883358001709
      ],
      "type": "VEC3"
    },
    {
      "bufferView": 2,
      "byteOffset": 57168,
      "componentType": 5126,
      "count": 8,
      "max": [
        0.0,
        0.0,
        1.0
      ],
      "min": [
        0.0,
        0.0,
        -1.0
      ],
      "type": "VEC3"
    },
    {
      "bufferView": 1,
      "byteOffset": 19024,
      "componentType": 5126,
      "count": 8,
      "max": [
        0.0,
        0.0
      ],
      "min": [
        0.0,
        0.0
      ],
      "type": "VEC2"
    },
    {
      "bufferView": 0,
      "byteOffset": 23508,
      "componentType": 5125,
      "count": 12,
      "type": "SCALAR"
    },
    {
      "bufferView": 2,
      "byteOffset": 57264,
      "componentType": 5126,
      "count": 2457,
      "max": [
        79.41667938232422,
        117.3466567993164,
        79.69700622558594
      ],
      "min": [
        -72.5267562866211,
        -71.15232849121094,
        -54.006893157958984
      ],
      "type": "VEC3"
    },
    {
      "bufferView": 2,
      "byteOffset": 86748,
      "componentType": 5126,
      "count": 2457,
      "max": [
        0.9999955296516418,
        1.0,
        0.9990971088409424
      ],
      "min": [
        -0.9999690055847168,
        -1.0,
        -0.9983184337615967
      ],
      "type": "VEC3"
    },
    {
      "bufferView": 1,
      "byteOffset": 19088,
      "componentType": 5126,
      "count": 2457,
      "max": [
        0.4311146140098572,
        0.6141802072525024
      ],
      "min": [
        0.14598128199577332,
        0.2698948383331299
      ],
      "type": "VEC2"
    },
    {
      "bufferView": 0,
      "byteOffset": 23556,
      "componentType": 5125,
      "count": 6888,
      "type": "SCALAR"
    },
    {
      "bufferView": 2,
      "byteOffset": 116232,
      "componentType": 5126,
      "count": 1257,
      "max": [
        63.68925476074219,
        125.38386535644531,
        10.472077369689941
      ],
      "min": [
        -11.019039154052734,
        -135.91615295410156,
        -75.86995697021484
      ],
      "type": "VEC3"
    },
    {
      "bufferView": 2,
      "byteOffset": 131316,
      "componentType": 5126,
      "count": 1257,
      "max": [
        0.9993979930877686,
        1.0,
        0.9991435408592224
      ],
      "min": [
        -0.9980385303497314,
        -1.0,
        -0.9995240569114685
      ],
      "type": "VEC3"
    },
    {
      "bufferView": 1,
      "byteOffset": 38744,
      "componentType": 5126,
      "count": 1257,
      "max": [
        0.9239822626113892,
        0.912858247756958
      ],
      "min": [
        0.3834608793258667,
        0.341677188873291
      ],
      "type": "VEC2"
    },
    {
      "bufferView": 0,
      "byteOffset": 51108,
      "componentType": 5125,
      "count": 3831,
      "type": "SCALAR"
    },
    {
      "bufferView": 2,
      "byteOffset": 146400,
      "componentType": 5126,
      "count": 16058,
      "max": [
        200.63571166992188,
        185.42401123046875,
        85.22666931152344
      ],
      "min": [
        -212.9747314453125,
        -94.06304168701172,
        -72.879638671875
      ],
      "type": "VEC3"
    },
    {
      "bufferView": 2,
      "byteOffset": 339096,
      "componentType": 5126,
      "count": 16058,
      "max": [
        1.0,
        1.0,
        1.0
      ],
      "min": [
        -1.0,
        -1.0,
        -1.0
      ],
      "type": "VEC3"
    },
    {
      "bufferView": 1,
      "byteOffset": 48800,
      "componentType": 5126,
      "count": 16058,
      "max": [
        0.9846557378768921,
        0.9863478541374207
      ],
      "min": [
        0.019806833937764168,
        0.21327006816864014
      ],
      "type": "VEC2"
    },
    {
      "bufferView": 1,
      "byteOffset": 177264,
      "componentType": 5126,
      "count": 16058,
      "max": [
        0.4152940511703491,
        0.5436632037162781
      ],
      "min": [
        0.0,
        0.0
      ],
      "type": "VEC2"
    },
    {
      "bufferView": 0,
      "byteOffset": 66432,
      "componentType": 5125,
      "count": 40899,
      "type": "SCALAR"
    },
    {
      "bufferView": 2,
      "byteOffset": 531792,
      "componentType": 5126,
      "count": 24,
      "max": [
        77.27967834472656,
        127.24535369873047,
        60.327613830566406
      ],
      "min": [
        -155.70223999023438,
        59.34832000732422,
        28.06209373474121
      ],
      "type": "VEC3"
    },
    {
      "bufferView": 2,
      "byteOffset": 532080,
      "componentType": 5126,
      "count": 24,
      "max": [
        0.2690248191356659,
        1.208443904943124e-07,
        -0.9631333351135254
      ],
      "min": [
        -0.05516131967306137,
        -5.5829282530339697e-08,
        -0.9984775185585022
      ],
      "type": "VEC3"
    },
    {
      "bufferView": 1,
      "byteOffset": 305728,
      "componentType": 5126,
      "count": 24,
      "max": [
        0.9886606931686401,
        0.9911003708839417
      ],
      "min": [
        0.009098585695028305,
        0.008899198845028877
      ],
      "type": "VEC2"
    },
    {
      "bufferView": 1,
      "byteOffset": 305920,
      "componentType": 5126,
      "count": 24,
      "max": [
        0.0,
        0.0
      ],
      "min": [
        0.0,
        0.0
      ],
      "type": "VEC2"
    },
    {
      "bufferView": 0,
      "byteOffset": 230028,
      "componentType": 5125,
      "count": 60,
      "type": "SCALAR"
    }
  ],
  "asset": {
    "extras": {
      "author": "AspectStudios (https://sketchfab.com/AspectStudio)",
      "license": "CC-BY-4.0 (http://creativecommons.org/licenses/by/4.0/)",
      "source": "https://sketchfab.com/3d-models/hacker-room-setup-draft-4aa2ce16ca0a4a44a621aab64e385b6b",
      "title": "Hacker Room Setup [DRAFT]"
    },
    "generator": "Sketchfab-16.72.0",
    "version": "2.0"
  },
  "bufferViews": [
    {
      "buffer": 0,
      "byteLength": 230268,
      "name": "floatBufferViews",
      "target": 34963
    },
    {
      "buffer": 0,
      "byteLength": 306112,
      "byteOffset": 230268,
      "byteStride": 8,
      "name": "floatBufferViews",
      "target": 34962
    },
    {
      "buffer": 0,
      "byteLength": 532368,
      "byteOffset": 536380,
      "byteStride": 12,
      "name": "floatBufferViews",
      "target": 34962
    }
  ],
  "buffers": [
    {
      "byteLength": 1068748,
      "uri": "scene.bin"
    }
  ],
  "extensionsUsed": [
    "KHR_materials_specular"
  ],
  "images": [
    {
      "uri": "textures/Material_baseColor.png"
    },
    {
      "uri": "textures/Material.001_baseColor.png"
    }
  ],
  "materials": [
    {
      "doubleSided": true,
      "extensions": {
        "KHR_materials_specular": {
          "specularColorFactor": [
            1.0,
            1.0,
            1.0
          ],
          "specularFactor": 0.0
        }
      },
      "name": "Material",
      "pbrMetallicRoughness": {
        "baseColorTexture": {
          "index": 0
        },
        "metallicFactor": 0.32152478940888196,
        "roughnessFactor": 0.9405712474552304
      }
    },
    {
      "alphaMode": "BLEND",
      "doubleSided": true,
      "extensions": {
        "KHR_materials_specular": {
          "specularColorFactor": [
            1.0,
            1.0,
            1.0
          ],
          "specularFactor": 0.0
        }
      },
      "name": "EEVEE_Architectural_Glass",
      "pbrMetallicRoughness": {
        "baseColorFactor": [
          0.8,
          0.8,
          0.8,
          0.40685838280649994
        ],
        "roughnessFactor": 0.0750448001365338
      }
    },
    {
      "doubleSided": true,
      "extensions": {
        "KHR_materials_specular": {
          "specularColorFactor": [
            1.0,
            1.0,
            1.0
          ],
          "specularFactor": 0.0
        }
      },
      "name": "Material.001",
      "pbrMetallicRoughness": {
        "baseColorTexture": {
          "index": 1
        },
        "metallicFactor": 0.0
      }
    }
  ],
  "meshes": [
    {
      "name": "Room_Material_0",
      "primitives": [
        {
          "attributes": {
            "NORMAL": 1,
            "POSITION": 0,
            "TEXCOORD_0": 2
          },
          "indices": 3,
          "material": 0,
          "mode": 4
        }
      ]
    },
    {
      "name": "Room_EEVEE_Architectural_Glass_0",
      "primitives": [
        {
          "attributes": {
            "NORMAL": 5,
            "POSITION": 4,
            "TEXCOORD_0": 6
          },
          "indices": 7,
          "material": 1,
          "mode": 4
        }
      ]
    },
    {
      "name": "Chair_Material_0",
      "primitives": [
        {
          "attributes": {
            "NORMAL": 9,
            "POSITION": 8,
            "TEXCOORD_0": 10
          },
          "indices": 11,
          "material": 0,
          "mode": 4
        }
      ]
    },
    {
      "name": "Door_Material_0",
      "primitives": [
        {
          "attributes": {
            "NORMAL": 13,
            "POSITION": 12,
            "TEXCOORD_0": 14
          },
          "indices": 15,
          "material": 0,
          "mode": 4
        }
      ]
    },
    {
      "name": "Setup_Material_0",
      "primitives": [
        {
          "attributes": {
            "NORMAL": 17,
            "POSITION": 16,
            "TEXCOORD_0": 18,
            "TEXCOORD_1": 19
          },
          "indices": 20,
          "material": 0,
          "mode": 4
        }
      ]
    },
    {
      "name": "Setup_Material.001_0",
      "primitives": [
        {
          "attributes": {
            "NORMAL": 22,
            "POSITION": 21,
            "TEXCOORD_0": 23,
            "TEXCOORD_1": 24
          },
          "indices": 25,
          "material": 2,
          "mode": 4
        }
      ]
    }
  ],
  "nodes": [
    {
      "children": [
        1
      ],
      "matrix": [
        1.0,
        0.0,
        0.0,
        0.0,
        0.0,
        2.220446049250313e-16,
        -1.0,
        0.0,
        0.0,
        1.0,
        2.220446049250313e-16,
        0.0,
        0.0,
        0.0,
        0.0,
        1.0
      ],
      "name": "Sketchfab_model"
    },
    {
      "children": [
        2
      ],
      "matrix": [
        0.009999999776482582,
        0.0,
        0.0,
        0.0,
        0.0,
        0.0,
        0.009999999776482582,
        0.0,
        0.0,
        -0.009999999776482582,
        0.0,
        0.0,
        0.0,
        0.0,
        0.0,
        1.0
      ],
      "name": "New.fbx"
    },
    {
      "children": [
        3
      ],
      "name": "RootNode"
    },
    {
      "children": [
        4,
        5,
        6,
        8,
        10
      ],
      "matrix": [
        1.0,
        0.0,
        0.0,
        0.0,
        0.0,
        1.0,
        0.0,
        0.0,
        0.0,
        0.0,
        1.0,
        0.0,
        -34.31821823120117,
        228.92210388183594,
        250.86334228515625,
        1.0
      ],
      "name": "Room"
    },
    {
      "mesh": 0,
      "name": "Room_Material_0"
    },
    {
      "mesh": 1,
      "name": "Room_EEVEE_Architectural_Glass_0"
    },
    {
      "children": [
        7
      ],
      "matrix": [
        1.0,
        0.0,
        0.0,
        0.0,
        0.0,
        1.0,
        0.0,
        0.0,
        0.0,
        0.0,
        1.0,
        0.0,
        -61.62701416015625,
        -149.7403564453125,
        -252.35665893554688,
        1.0
      ],
      "name": "Chair"
    },
    {
      "mesh": 2,
      "name": "Chair_Material_0"
    },
    {
      "children": [
        9
      ],
      "matrix": [
        1.0,
        0.0,
        0.0,
        0.0,
        0.0,
        1.0,
        0.0,
        0.0,
        0.0,
        0.0,
        1.0,
        0.0,
        -298.42041015625,
        -83.42727661132813,
        -204.75535583496094,
        1.0
      ],
      "name": "Door"
    },
    {
      "mesh": 3,
      "name": "Door_Material_0"
    },
    {
      "children": [
        11,
        12
      ],
      "matrix": [
        1.0,
        0.0,
        0.0,
        0.0,
        0.0,
        1.0,
        0.0,
        0.0,
        0.0,
        0.0,
        1.0,
        0.0,
        -19.579666137695313,
        -129.73025512695313,
        -69.70793151855469,
        1.0
      ],
      "name": "Setup"
    },
    {
      "mesh": 4,
      "name": "Setup_Material_0"
    },
    {
      "mesh": 5,
      "name": "Setup_Material.001_0"
    }
  ],
  "samplers": [
    {
      "magFilter": 9729,
      "minFilter": 9987,
      "wrapS": 10497,
      "wrapT": 10497
    }
  ],
  "scene": 0,
  "scenes": [
    {
      "name": "Sketchfab_Scene",
      "nodes": [
        0
      ]
    }
  ],
  "textures": [
    {
      "sampler": 0,
      "source": 0
    },
    {
      "sampler": 0,
      "source": 1
    }
  ]
}
